<svg width="270" height="82" viewBox="0 0 270 82" fill="none" xmlns="http://www.w3.org/2000/svg">
<path d="M69.1793 38.6714C70.8864 39.319 70.9045 41.7275 69.2072 42.4006L45.1599 51.9366C45.0535 51.9788 44.9437 52.0118 44.8317 52.0352L11.8824 58.9201C11.6299 58.9729 11.3695 58.9763 11.1156 58.9301L2.14223 57.2986C1.19125 57.1257 0.5 56.2974 0.5 55.3308V25.6692C0.5 24.7026 1.19125 23.8743 2.14223 23.7014L11.101 22.0725C11.3643 22.0247 11.6346 22.0301 11.8957 22.0886L44.8609 29.4689C44.9535 29.4896 45.0445 29.5169 45.1333 29.5506L69.1793 38.6714Z" fill="#4FB4FD"/>
<path d="M4 6.5L19 0.00480938V12.9952L4 6.5Z" fill="#4FB4FD"/>
<path d="M4 75.5L19 69.0048V81.9952L4 75.5Z" fill="#4FB4FD"/>
<rect width="10" height="82" transform="matrix(-1 0 0 1 29 0)" fill="#4FB4FD"/>
<path d="M92.84 28.16C92.4667 28.16 92.1067 28.0667 91.76 27.88C91.4133 27.6933 91.1733 27.4133 91.04 27.04C90.7733 26.32 90.48 25.8133 90.16 25.52C89.8667 25.2 89.5067 25.04 89.08 25.04C88.8133 25.04 88.56 25.24 88.32 25.64C88.1067 26.04 87.9467 26.6667 87.84 27.52C87.6533 29.28 87.56 30.6267 87.56 31.56C87.96 31.64 88.52 31.68 89.24 31.68C89.6133 31.68 90.0933 31.6533 90.68 31.6L91.76 31.56C92.24 31.56 92.6133 31.6533 92.88 31.84C93.1467 32.0267 93.28 32.3333 93.28 32.76C93.28 33.3733 93.0933 33.88 92.72 34.28C92.3467 34.68 91.9067 34.88 91.4 34.88C89.48 34.88 88.1867 34.9733 87.52 35.16C87.52 36.76 87.6 39.0533 87.76 42.04C87.76 42.4933 87.7867 43.1467 87.84 44L88 47.08C88.0533 47.8533 87.9733 48.4 87.76 48.72C87.5733 49.0133 87.16 49.16 86.52 49.16C85.3467 49.16 84.5867 48.4533 84.24 47.04C84.0267 46.0267 83.8533 44.5867 83.72 42.72C83.6133 40.8267 83.56 39.16 83.56 37.72C83.56 36.9733 83.6 36.1067 83.68 35.12C83.6267 35.0933 83.48 35.08 83.24 35.08C83 35.08 82.8267 35.0933 82.72 35.12C81.92 35.1733 81.3333 35.2 80.96 35.2C80.72 35.2 80.48 35.0267 80.24 34.68C80 34.3333 79.88 33.9333 79.88 33.48C79.88 33.2133 79.9733 32.9733 80.16 32.76C80.3467 32.52 80.5733 32.3467 80.84 32.24C81.24 32.0267 81.8133 31.92 82.56 31.92H83.76C83.76 28.1867 84.1733 25.5867 85 24.12C85.8 22.7333 87.12 22.04 88.96 22.04C89.8133 22.04 90.6267 22.2133 91.4 22.56C92.2 22.9067 92.84 23.3867 93.32 24C93.8267 24.6133 94.08 25.3067 94.08 26.08C94.08 26.9067 93.9733 27.4667 93.76 27.76C93.5467 28.0267 93.24 28.16 92.84 28.16ZM96.4363 34.96C95.7429 34.48 95.3963 33.9733 95.3963 33.44C95.3963 33.0667 95.5563 32.72 95.8763 32.4C96.1963 32.08 96.6763 31.92 97.3163 31.92C98.0629 31.92 98.7296 32.12 99.3163 32.52C99.9296 32.8933 100.356 33.44 100.596 34.16C101.21 33.44 101.903 32.8667 102.676 32.44C103.476 32.0133 104.29 31.8 105.116 31.8C106.103 31.8 106.996 32.0667 107.796 32.6C108.596 33.1333 108.996 33.8533 108.996 34.76C108.996 35.2667 108.77 35.7867 108.316 36.32C107.89 36.8533 107.45 37.12 106.996 37.12C106.756 37.12 106.543 37.0667 106.356 36.96C106.196 36.8267 105.996 36.64 105.756 36.4C105.49 36.1333 105.263 35.9467 105.076 35.84C104.89 35.7067 104.676 35.64 104.436 35.64C104.01 35.64 103.61 35.7067 103.236 35.84C102.863 35.9733 102.61 36.1333 102.476 36.32C102.05 36.9867 101.73 37.5867 101.516 38.12C101.33 38.6533 101.236 39.2267 101.236 39.84C101.236 40.2933 101.223 40.6533 101.196 40.92L101.156 43.2C101.156 43.5467 101.17 43.9333 101.196 44.36C101.223 44.7867 101.25 45.1067 101.276 45.32C101.356 46.04 101.396 46.7333 101.396 47.4C101.396 47.8533 101.223 48.2533 100.876 48.6C100.53 48.9467 100.103 49.12 99.5963 49.12C98.7963 49.12 98.2096 48.9733 97.8363 48.68C97.4629 48.36 97.2763 47.7867 97.2763 46.96L97.2363 44.4C97.2096 43.8933 97.1963 43.1733 97.1963 42.24L97.2363 39.6C97.2896 38.32 97.3163 37.28 97.3163 36.48C97.3163 36.1867 97.2496 35.92 97.1163 35.68C97.0096 35.44 96.7829 35.2 96.4363 34.96ZM113.394 23.32C114.328 23.4 115.141 23.6533 115.834 24.08C116.528 24.48 116.874 25.0933 116.874 25.92C116.874 26.5333 116.581 27.0267 115.994 27.4C115.434 27.7467 114.754 27.92 113.954 27.92C113.181 27.92 112.648 27.72 112.354 27.32C112.061 26.92 111.914 26.5067 111.914 26.08C111.914 25.28 111.994 24.6133 112.154 24.08C112.341 23.5467 112.754 23.2933 113.394 23.32ZM116.594 41.04V42.2C116.594 43.24 116.621 44.2267 116.674 45.16C116.754 46.0667 116.848 46.9867 116.954 47.92C116.928 48.1867 116.728 48.4667 116.354 48.76C115.981 49.0267 115.648 49.16 115.354 49.16C114.848 49.16 114.328 49.0667 113.794 48.88C113.288 48.6667 112.981 48.4133 112.874 48.12C112.714 47.2667 112.634 46.5067 112.634 45.84C112.634 43.6533 112.568 41.2 112.434 38.48C112.328 36.08 112.274 34.4 112.274 33.44C112.274 32.96 112.514 32.5467 112.994 32.2C113.474 31.8533 113.981 31.68 114.514 31.68C115.288 31.68 115.821 31.8533 116.114 32.2C116.434 32.5467 116.594 33.0933 116.594 33.84V41.04ZM121.189 39.84C121.189 38.2133 121.549 36.8667 122.269 35.8C122.989 34.7067 123.989 33.68 125.269 32.72C125.642 32.4533 126.269 32.2267 127.149 32.04C128.029 31.8267 128.802 31.72 129.469 31.72C130.269 31.72 131.109 31.8933 131.989 32.24C132.895 32.56 133.629 32.9333 134.189 33.36C135.175 34.08 135.855 34.92 136.229 35.88C136.602 36.8133 136.789 37.9333 136.789 39.24C136.789 39.8 136.469 40.3467 135.829 40.88C135.215 41.3867 134.549 41.64 133.829 41.64L132.309 41.6C131.535 41.6 130.429 41.6267 128.989 41.68L128.149 41.72C127.562 41.7733 127.122 41.8 126.829 41.8C126.402 41.8 125.815 41.7467 125.069 41.64C125.175 42.8933 125.642 43.88 126.469 44.6C127.295 45.2933 128.189 45.64 129.149 45.64C130.829 45.64 132.002 45.3067 132.669 44.64C133.229 44.24 133.602 43.9867 133.789 43.88C133.975 43.7733 134.269 43.72 134.669 43.72C135.095 43.72 135.469 43.92 135.789 44.32C136.109 44.72 136.269 45.12 136.269 45.52C136.269 45.9733 135.989 46.44 135.429 46.92C134.895 47.3733 134.162 47.8533 133.229 48.36C132.722 48.5733 132.029 48.76 131.149 48.92C130.269 49.08 129.535 49.16 128.949 49.16C128.015 49.16 126.975 48.8933 125.829 48.36C124.682 47.8 123.829 47.1867 123.269 46.52C122.709 45.8533 122.215 44.9067 121.789 43.68C121.389 42.4533 121.189 41.1733 121.189 39.84ZM129.149 38.76C131.042 38.76 132.429 38.6933 133.309 38.56C133.255 37.7867 133.015 37.16 132.589 36.68C132.162 36.1733 131.575 35.7467 130.829 35.4C130.589 35.2933 130.375 35.2133 130.189 35.16C130.002 35.1067 129.789 35.08 129.549 35.08C128.322 35.08 127.282 35.4133 126.429 36.08C125.602 36.7467 125.109 37.6 124.949 38.64C126.282 38.72 127.682 38.76 129.149 38.76ZM158.813 45.92C158.946 45.9733 159.16 46.04 159.453 46.12C159.746 46.2 159.96 46.28 160.093 46.36C160.226 46.44 160.293 46.56 160.293 46.72C160.32 47.36 160.08 47.8933 159.573 48.32C159.093 48.72 158.52 48.92 157.853 48.92C156.813 48.92 156 48.64 155.413 48.08C154.826 47.52 154.4 46.6667 154.133 45.52C154.026 45.0667 153.973 44.44 153.973 43.64C153.973 43.1867 154 42.4533 154.053 41.44C154.106 40.3733 154.133 39.52 154.133 38.88C154.133 37.7333 154.013 36.8667 153.773 36.28C153.533 35.6667 152.96 35.36 152.053 35.36C151.12 35.36 150.28 35.7333 149.533 36.48C148.813 37.2267 148.2 38.3467 147.693 39.84C147 41.92 146.613 44.68 146.533 48.12C146.533 48.3067 146.333 48.5333 145.933 48.8C145.56 49.04 145.106 49.16 144.573 49.16C143.586 49.16 142.973 48.64 142.733 47.6L142.693 46.92C142.693 46.68 142.72 46.4 142.773 46.08C143.093 44.2133 143.253 42.5867 143.253 41.2C143.253 40.5867 143.24 40.1067 143.213 39.76L143.173 37.88C143.173 37.24 143.013 36.6267 142.693 36.04C142.373 35.4267 142 35.12 141.573 35.12C141.44 35.12 141.253 35.1733 141.013 35.28C140.773 35.36 140.573 35.4 140.413 35.4C140.146 35.4 139.853 35.2667 139.533 35C139.24 34.7333 139.093 34.4533 139.093 34.16C139.093 33.6 139.28 33.1467 139.653 32.8C140.053 32.48 140.44 32.2267 140.813 32.04C141.213 31.8533 141.666 31.76 142.173 31.76C142.6 31.76 142.946 31.8 143.213 31.88C143.48 31.96 143.84 32.1333 144.293 32.4C144.56 32.5333 144.866 32.9067 145.213 33.52C145.56 34.1333 145.826 35 146.013 36.12C146.546 35.1333 147.44 34.0933 148.693 33C149.626 32.1467 150.973 31.72 152.733 31.72C154.333 31.72 155.6 32.3067 156.533 33.48C157.466 34.6267 157.933 36.2133 157.933 38.24C157.933 38.64 157.906 39.2933 157.853 40.2C157.773 40.92 157.733 41.68 157.733 42.48C157.733 44.3467 158.093 45.4933 158.813 45.92ZM179.228 23.96C179.228 24.2267 179.162 24.96 179.028 26.16C178.735 29.0933 178.588 32.0667 178.588 35.08C178.588 37.72 178.628 39.7333 178.708 41.12C178.788 42.5067 178.988 43.5733 179.308 44.32C179.628 45.04 180.122 45.4 180.788 45.4C182.068 45.4 182.708 45.8267 182.708 46.68C182.708 47.24 182.428 47.72 181.868 48.12C181.308 48.4933 180.695 48.68 180.028 48.68C179.228 48.68 178.482 48.4933 177.788 48.12C177.095 47.7467 176.548 47.1733 176.148 46.4C175.588 47.2267 174.775 47.8933 173.708 48.4C172.668 48.88 171.655 49.12 170.668 49.12C169.148 49.12 167.802 48.8 166.628 48.16C165.455 47.52 164.548 46.6533 163.908 45.56C163.268 44.44 162.948 43.2133 162.948 41.88C162.948 40.6 163.095 39.3733 163.388 38.2C163.708 37 164.135 36.0133 164.668 35.24C165.388 34.2267 166.348 33.4267 167.548 32.84C168.775 32.2267 169.975 31.92 171.148 31.92C171.868 31.92 172.548 32.0667 173.188 32.36C173.828 32.6267 174.388 32.96 174.868 33.36C174.868 31.5733 174.855 30.4533 174.828 30V29.16C174.828 26.68 174.988 24.8667 175.308 23.72C175.602 22.6 176.308 22.04 177.428 22.04C178.042 22.04 178.495 22.1733 178.788 22.44C179.082 22.7067 179.228 23.2133 179.228 23.96ZM166.908 41.8C166.908 43.0267 167.255 44.0133 167.948 44.76C168.668 45.5067 169.522 45.88 170.508 45.88C171.922 45.88 172.962 45.44 173.628 44.56C174.322 43.68 174.668 42.5467 174.668 41.16L174.628 37.2C173.588 36.0533 172.508 35.48 171.388 35.48C170.615 35.48 169.882 35.68 169.188 36.08C168.522 36.4533 167.988 37.0267 167.588 37.8C167.135 38.68 166.908 40.0133 166.908 41.8ZM196.539 40.36C196.752 40.4933 197.165 40.7467 197.779 41.12C198.419 41.4667 198.845 41.88 199.059 42.36C199.272 42.84 199.379 43.5067 199.379 44.36C199.379 45.32 199.099 46.1733 198.539 46.92C197.979 47.64 197.259 48.2 196.379 48.6C195.765 48.8667 195.099 49.0267 194.379 49.08C193.685 49.1333 192.845 49.16 191.859 49.16C191.325 49.16 190.632 49.08 189.779 48.92C188.952 48.76 188.379 48.6133 188.059 48.48C187.205 48 186.485 47.44 185.899 46.8C185.312 46.16 185.019 45.5067 185.019 44.84C185.019 44.3067 185.192 43.88 185.539 43.56C185.885 43.24 186.339 43.08 186.899 43.08C187.192 43.08 187.472 43.16 187.739 43.32C188.032 43.4533 188.232 43.6133 188.339 43.8C188.632 44.4933 189.125 45.0133 189.819 45.36C190.512 45.7067 191.219 45.88 191.939 45.88C194.472 45.88 195.739 45.4267 195.739 44.52C195.739 44.28 195.672 44.0933 195.539 43.96C195.432 43.8 195.272 43.64 195.059 43.48C194.712 43.24 194.219 42.9867 193.579 42.72C192.965 42.4533 192.419 42.2533 191.939 42.12C190.845 41.88 189.779 41.52 188.739 41.04C187.779 40.56 186.992 39.9333 186.379 39.16C185.765 38.36 185.459 37.3867 185.459 36.24C185.459 35.5467 185.712 34.8667 186.219 34.2C186.752 33.5067 187.365 32.9867 188.059 32.64C188.539 32.4533 189.325 32.2533 190.419 32.04C191.512 31.8267 192.259 31.72 192.659 31.72C193.272 31.72 193.939 31.7867 194.659 31.92C195.379 32.0267 195.925 32.2133 196.299 32.48C197.019 32.9067 197.605 33.36 198.059 33.84C198.512 34.2933 198.739 34.8133 198.739 35.4C198.739 35.6933 198.672 36.0133 198.539 36.36C198.405 36.68 198.245 36.88 198.059 36.96C197.659 37.1467 197.192 37.24 196.659 37.24C196.419 37.24 196.219 37.1733 196.059 37.04C195.925 36.9067 195.739 36.6933 195.499 36.4C195.205 35.9467 194.925 35.68 194.659 35.6C194.339 35.52 193.872 35.4267 193.259 35.32C192.645 35.1867 192.232 35.12 192.019 35.12C191.352 35.12 190.712 35.2533 190.099 35.52C189.512 35.7867 189.219 36.1467 189.219 36.6C189.219 37.1333 189.659 37.5867 190.539 37.96C191.099 38.2267 191.712 38.4533 192.379 38.64C193.072 38.8267 193.499 38.9467 193.659 39C194.032 39.08 194.512 39.2667 195.099 39.56C195.712 39.8533 196.192 40.12 196.539 40.36ZM207.991 23.64C207.991 24.3333 207.978 25.1467 207.951 26.08C207.925 26.9867 207.898 27.68 207.871 28.16C207.791 29.52 207.751 30.88 207.751 32.24C207.751 34.0267 207.791 35.4667 207.871 36.56C208.485 35.04 209.351 33.8933 210.471 33.12C211.591 32.32 212.871 31.92 214.311 31.92C215.298 31.92 216.218 32.36 217.071 33.24C217.925 34.12 218.471 35.1467 218.711 36.32C218.738 36.4533 218.751 36.6533 218.751 36.92C218.751 37.24 218.725 37.7467 218.671 38.44C218.591 39 218.551 39.56 218.551 40.12C218.551 41.56 218.605 42.68 218.711 43.48C218.818 44.2533 219.045 44.8933 219.391 45.4C219.738 45.88 220.285 46.2667 221.031 46.56C221.325 46.6667 221.525 46.8133 221.631 47C221.765 47.16 221.831 47.4133 221.831 47.76C221.831 48.24 221.578 48.6 221.071 48.84C220.591 49.08 220.125 49.2 219.671 49.2C218.738 49.2 217.898 48.9467 217.151 48.44C216.405 47.9333 215.845 47.2667 215.471 46.44C215.205 45.88 215.031 45.2133 214.951 44.44C214.871 43.6667 214.831 42.76 214.831 41.72L214.871 38.24C214.871 36.3467 214.258 35.4 213.031 35.4C212.151 35.4 211.298 36.12 210.471 37.56C209.645 39 208.978 40.6933 208.471 42.64C207.965 44.5867 207.711 46.1867 207.711 47.44C207.711 48.0267 207.525 48.4667 207.151 48.76C206.805 49.0267 206.445 49.16 206.071 49.16C205.485 49.16 204.951 48.9867 204.471 48.64C203.991 48.2667 203.751 47.8533 203.751 47.4C203.938 45.4 204.031 42.0533 204.031 37.36C204.031 36.5067 203.965 33.3467 203.831 27.88L203.711 24.2C203.711 23.6133 203.978 23.1067 204.511 22.68C205.045 22.2267 205.645 22 206.311 22C206.898 22 207.325 22.1333 207.591 22.4C207.858 22.6667 207.991 23.08 207.991 23.64ZM226.4 23.32C227.334 23.4 228.134 23.6533 228.8 24.08C229.494 24.48 229.84 25.0933 229.84 25.92C229.84 26.5333 229.56 27.0267 229 27.4C228.44 27.7467 227.747 27.92 226.92 27.92C226.147 27.92 225.614 27.72 225.32 27.32C225.027 26.92 224.88 26.5067 224.88 26.08C224.88 25.3067 224.974 24.6533 225.16 24.12C225.347 23.56 225.76 23.2933 226.4 23.32ZM225.6 39.84V38.68C225.6 37.3467 225.534 36.1333 225.4 35.04C225.294 33.92 225.227 33.2267 225.2 32.96C225.227 32.6667 225.427 32.3867 225.8 32.12C226.174 31.8533 226.507 31.72 226.8 31.72C227.307 31.72 227.814 31.8267 228.32 32.04C228.854 32.2267 229.187 32.4667 229.32 32.76C229.454 33.7467 229.52 34.5067 229.52 35.04C229.52 36.2133 229.574 38.1333 229.68 40.8L229.72 42.36L229.8 43.88C229.827 44.3067 229.854 44.8133 229.88 45.4C229.907 45.9867 229.92 46.6533 229.92 47.4C229.92 47.9067 229.667 48.3333 229.16 48.68C228.68 49.0267 228.174 49.2 227.64 49.2C226.867 49.2 226.32 49.0267 226 48.68C225.707 48.3333 225.56 47.7867 225.56 47.04L225.6 39.84ZM235.517 35.08C235.277 35.08 235.05 35.1067 234.837 35.16C234.623 35.1867 234.41 35.2 234.197 35.2C233.903 35.2 233.623 35.0667 233.357 34.8C233.117 34.5333 232.997 34.2933 232.997 34.08C232.997 33.3867 233.343 32.8533 234.037 32.48C234.73 32.08 235.437 31.88 236.157 31.88C236.77 31.88 237.397 32.0933 238.037 32.52C238.703 32.92 239.197 33.44 239.517 34.08C240.21 33.2533 241.063 32.6533 242.077 32.28C243.09 31.9067 244.143 31.72 245.237 31.72C246.463 31.72 247.597 32.1067 248.637 32.88C249.703 33.6533 250.543 34.64 251.157 35.84C251.77 37.0133 252.077 38.1867 252.077 39.36C252.077 40.5067 251.957 41.5333 251.717 42.44C251.477 43.32 251.05 44.2133 250.437 45.12C249.743 46.08 248.81 46.8667 247.637 47.48C246.49 48.0933 245.117 48.4 243.517 48.4C243.09 48.4 242.57 48.2933 241.957 48.08C241.343 47.84 240.837 47.5867 240.437 47.32C240.25 49.1333 240.157 50.7067 240.157 52.04C240.157 52.84 240.197 53.6 240.277 54.32C240.33 55.1733 240.357 55.7867 240.357 56.16C240.357 56.7467 240.157 57.1733 239.757 57.44C239.357 57.7333 238.917 57.88 238.437 57.88C237.477 57.88 236.837 57.6133 236.517 57.08C236.223 56.5733 236.077 55.84 236.077 54.88C236.183 52.5867 236.317 50.4667 236.477 48.52C236.637 46.12 236.717 42.4133 236.717 37.4C236.717 36.92 236.623 36.4133 236.437 35.88C236.25 35.3467 235.943 35.08 235.517 35.08ZM240.597 43.36C240.73 43.8667 241.103 44.2933 241.717 44.64C242.357 44.96 242.93 45.12 243.437 45.12C244.957 45.12 246.09 44.7067 246.837 43.88C247.397 43.2933 247.757 42.72 247.917 42.16C248.103 41.6 248.197 40.7067 248.197 39.48C248.197 38.52 248.01 37.72 247.637 37.08C247.263 36.4133 246.81 35.9333 246.277 35.64C245.743 35.32 245.237 35.16 244.757 35.16C243.663 35.16 242.77 35.4933 242.077 36.16C241.41 36.8 240.983 37.68 240.797 38.8C240.663 39.68 240.597 41.2 240.597 43.36ZM266.968 40.36C267.182 40.4933 267.595 40.7467 268.208 41.12C268.848 41.4667 269.275 41.88 269.488 42.36C269.702 42.84 269.808 43.5067 269.808 44.36C269.808 45.32 269.528 46.1733 268.968 46.92C268.408 47.64 267.688 48.2 266.808 48.6C266.195 48.8667 265.528 49.0267 264.808 49.08C264.115 49.1333 263.275 49.16 262.288 49.16C261.755 49.16 261.062 49.08 260.208 48.92C259.382 48.76 258.808 48.6133 258.488 48.48C257.635 48 256.915 47.44 256.328 46.8C255.742 46.16 255.448 45.5067 255.448 44.84C255.448 44.3067 255.622 43.88 255.968 43.56C256.315 43.24 256.768 43.08 257.328 43.08C257.622 43.08 257.902 43.16 258.168 43.32C258.462 43.4533 258.662 43.6133 258.768 43.8C259.062 44.4933 259.555 45.0133 260.248 45.36C260.942 45.7067 261.648 45.88 262.368 45.88C264.902 45.88 266.168 45.4267 266.168 44.52C266.168 44.28 266.102 44.0933 265.968 43.96C265.862 43.8 265.702 43.64 265.488 43.48C265.142 43.24 264.648 42.9867 264.008 42.72C263.395 42.4533 262.848 42.2533 262.368 42.12C261.275 41.88 260.208 41.52 259.168 41.04C258.208 40.56 257.422 39.9333 256.808 39.16C256.195 38.36 255.888 37.3867 255.888 36.24C255.888 35.5467 256.142 34.8667 256.648 34.2C257.182 33.5067 257.795 32.9867 258.488 32.64C258.968 32.4533 259.755 32.2533 260.848 32.04C261.942 31.8267 262.688 31.72 263.088 31.72C263.702 31.72 264.368 31.7867 265.088 31.92C265.808 32.0267 266.355 32.2133 266.728 32.48C267.448 32.9067 268.035 33.36 268.488 33.84C268.942 34.2933 269.168 34.8133 269.168 35.4C269.168 35.6933 269.102 36.0133 268.968 36.36C268.835 36.68 268.675 36.88 268.488 36.96C268.088 37.1467 267.622 37.24 267.088 37.24C266.848 37.24 266.648 37.1733 266.488 37.04C266.355 36.9067 266.168 36.6933 265.928 36.4C265.635 35.9467 265.355 35.68 265.088 35.6C264.768 35.52 264.302 35.4267 263.688 35.32C263.075 35.1867 262.662 35.12 262.448 35.12C261.782 35.12 261.142 35.2533 260.528 35.52C259.942 35.7867 259.648 36.1467 259.648 36.6C259.648 37.1333 260.088 37.5867 260.968 37.96C261.528 38.2267 262.142 38.4533 262.808 38.64C263.502 38.8267 263.928 38.9467 264.088 39C264.462 39.08 264.942 39.2667 265.528 39.56C266.142 39.8533 266.622 40.12 266.968 40.36Z" fill="white"/>
</svg>
